# xmcd CD database file
#
# Track frame offsets:
#	150
#	46690
#	96950
#	131725
#	160497
#	178322
#	187920
#	207730
#	212025
#	225097
#	235932
#	249217
#	255477
#	273297
#	278515
#	292830
#	300307
#	316527
#
# Disc length: 4411 seconds
#
# Revision: 3
# Processed by: cddbd v1.5.2PL0 Copyright (c) Steve Scherf et al.
# Submitted via: CDex 1.99
#
DISCID=ec113912
DTITLE=Various Artist - The Chess Story 1947-1975 CD14: Interview
DYEAR=1999
DGENRE=Soul/R&B
TTITLE0=Phil Chess - Mary Aldin's interview with Phil Chess, Part 1 (of 4 Parts)
TTITLE1=Phil Chess - Mary Aldin's interview with Phil Chess, Part 2 (of 4 Parts)
TTITLE2=Phil Chess - Mary Aldin's interview with Phil Chess, Part 3 (of 4 Parts)
TTITLE3=Phil Chess - Mary Aldin's interview with Phil Chess, Part 4 (of 4 Parts)
TTITLE4=Marshall Chess - Paul Jones' interview with Marshall Chess, Part 1 (of 14 Parts)
TTITLE5=Marshall Chess - Paul Jones' interview with Marshall Chess, Part 2 (of 14 Parts)
TTITLE6=Marshall Chess - Paul Jones' interview with Marshall Chess, Part 3 (of 14 Parts)
TTITLE7=Marshall Chess - Paul Jones' interview with Marshall Chess, Part 4 (of 14 Parts)
TTITLE8=Marshall Chess - Paul Jones' interview with Marshall Chess, Part 5 (of 14 Parts)
TTITLE9=Marshall Chess - Paul Jones' interview with Marshall Chess, Part 6 (of 14 Parts)
TTITLE10=Marshall Chess - Paul Jones' interview with Marshall Chess, Part 7 (of 14 Parts)
TTITLE11=Marshall Chess - Paul Jones' interview with Marshall Chess, Part 8 (of 14 Parts)
TTITLE12=Marshall Chess - Paul Jones' interview with Marshall Chess, Part 9 (of 14 Parts)
TTITLE13=Marshall Chess - Paul Jones' interview with Marshall Chess, Part 10 (of 14 Parts)
TTITLE14=Marshall Chess - Paul Jones' interview with Marshall Chess, Part 11 (of 14 Parts)
TTITLE15=Marshall Chess - Paul Jones' interview with Marshall Chess, Part 12 (of 14 Parts)
TTITLE16=Marshall Chess - Paul Jones' interview with Marshall Chess, Part 13 (of 14 Parts)
TTITLE17=Marshall Chess - Paul Jones' interview with Marshall Chess, Part 14 (of 14 Parts)
EXTD=YEAR: 1999
EXTT0=
EXTT1=
EXTT2=
EXTT3=
EXTT4=
EXTT5=
EXTT6=
EXTT7=
EXTT8=
EXTT9=
EXTT10=
EXTT11=
EXTT12=
EXTT13=
EXTT14=
EXTT15=
EXTT16=
EXTT17=
PLAYORDER=
